<?xml version="1.0" encoding="utf-8" ?>
<!DOCTYPE svg PUBLIC "-//W3C//DTD SVG 1.1//EN" "http://www.w3.org/Graphics/SVG/1.1/DTD/svg11.dtd">
<svg height="746" version="1.1" width="689" xmlns="http://www.w3.org/2000/svg">
<rect fill="#ffffff" height="50" stroke="#ffffff" stroke-width="1" width="66" x="302" y="24"/>
<rect fill="none" height="50" stroke="#000000" stroke-width="1" width="66" x="302" y="24"/>
<text font-family="Dialog" font-size="12" x="322" y="38">
Main</text>
<rect fill="#000000" height="1" stroke="#000000" stroke-width="1" width="66" x="302" y="48"/>
<text font-family="Dialog" font-size="12" x="306" y="63">
main()</text>
<rect fill="#ffffff" height="50" stroke="#ffffff" stroke-width="1" width="213" x="462" y="24"/>
<rect fill="none" height="50" stroke="#000000" stroke-width="1" width="213" x="462" y="24"/>
<text font-family="Dialog" font-size="12" x="525" y="38">
MyClassLoader</text>
<rect fill="#000000" height="1" stroke="#000000" stroke-width="1" width="213" x="462" y="48"/>
<text font-family="Dialog" font-size="12" x="466" y="63">
loadOperators() : ArrayList&lt;Operator&gt;</text>
<rect fill="#ffffff" height="50" stroke="#ffffff" stroke-width="1" width="203" x="230" y="112"/>
<rect fill="none" height="50" stroke="#000000" stroke-width="1" width="203" x="230" y="112"/>
<text font-family="Dialog" font-size="12" x="321" y="126">
GUI</text>
<rect fill="#000000" height="1" stroke="#000000" stroke-width="1" width="203" x="230" y="136"/>
<text font-family="Dialog" font-size="12" x="234" y="151">
GUI(Operator : ArrayList&lt;Operator&gt;)</text>
<rect fill="#ffffff" height="128" stroke="#ffffff" stroke-width="1" width="240" x="214" y="200"/>
<rect fill="none" height="128" stroke="#000000" stroke-width="1" width="240" x="214" y="200"/>
<text font-family="Dialog" font-size="12" x="306" y="214">
Calculator</text>
<rect fill="#000000" height="1" stroke="#000000" stroke-width="1" width="240" x="214" y="224"/>
<text font-family="Dialog" font-size="12" x="218" y="239">
number : Double</text>
<rect fill="#000000" height="1" stroke="#000000" stroke-width="1" width="240" x="214" y="258"/>
<text font-family="Dialog" font-size="12" x="218" y="273">
Calculator(Operator : ArrayList&lt;Operator&gt;)</text>
<text font-family="Dialog" font-size="12" x="218" y="290">
pushNumber(num : Double)</text>
<text font-family="Dialog" font-size="12" x="218" y="307">
pushOperator(operator : Operator)</text>
<polyline fill="none" points="334,74 334,112" stroke="#000000" stroke-width="1"/>
<polygon fill="#ffffff" points="334,74 339,84 334,94 329,84" stroke="#ffffff" stroke-width="1"/>
<polygon fill="none" points="334,74 339,84 334,94 329,84" stroke="#000000" stroke-width="1"/>
<polyline fill="none" points="334,162 334,200" stroke="#000000" stroke-width="1"/>
<polygon fill="#ffffff" points="334,162 339,172 334,182 329,172" stroke="#ffffff" stroke-width="1"/>
<polygon fill="none" points="334,162 339,172 334,182 329,172" stroke="#000000" stroke-width="1"/>
<polyline fill="none" points="462,48 368,48" stroke="#000000" stroke-width="1"/>
<rect fill="#ffffff" height="70" stroke="#ffffff" stroke-width="1" width="188" x="238" y="360"/>
<rect fill="none" height="70" stroke="#000000" stroke-width="1" width="188" x="238" y="360"/>
<text font-family="Dialog" font-size="12" x="308" y="394">
Operator</text>
<text font-family="Dialog" font-size="12" x="294" y="375">
&lt;&lt;interface&gt;&gt;</text>
<rect fill="#000000" height="1" stroke="#000000" stroke-width="1" width="188" x="238" y="404"/>
<text font-family="Dialog" font-size="12" x="242" y="419">
calculate(num : Double) : Double</text>
<polyline fill="none" points="334,328 334,360" stroke="#000000" stroke-width="1"/>
<polygon fill="#ffffff" points="334,328 339,338 334,348 329,338" stroke="#ffffff" stroke-width="1"/>
<polygon fill="none" points="334,328 339,338 334,348 329,338" stroke="#000000" stroke-width="1"/>
<rect fill="#ffffff" height="105" stroke="#ffffff" stroke-width="1" width="134" x="118" y="464"/>
<rect fill="none" height="105" stroke="#000000" stroke-width="1" width="134" x="118" y="464"/>
<text font-family="Dialog" font-size="12" x="149" y="478">
TwoOperand</text>
<rect fill="#000000" height="1" stroke="#000000" stroke-width="1" width="134" x="118" y="488"/>
<text font-family="Dialog" font-size="12" x="122" y="503">
num : Double</text>
<rect fill="#000000" height="1" stroke="#000000" stroke-width="1" width="134" x="118" y="519"/>
<text font-family="Dialog" font-size="12" x="122" y="534">
TwoOperand()</text>
<text font-family="Dialog" font-size="12" x="122" y="551">
setNum(num : Double)</text>
<rect fill="#ffffff" height="67" stroke="#ffffff" stroke-width="1" width="66" x="334" y="480"/>
<rect fill="none" height="67" stroke="#000000" stroke-width="1" width="66" x="334" y="480"/>
<text font-family="Dialog" font-size="12" x="347" y="494">
Negate</text>
<rect fill="#000000" height="1" stroke="#000000" stroke-width="1" width="66" x="334" y="504"/>
<rect fill="#000000" height="1" stroke="#000000" stroke-width="1" width="66" x="334" y="525"/>
<rect fill="#ffffff" height="68" stroke="#ffffff" stroke-width="1" width="66" x="470" y="480"/>
<rect fill="none" height="68" stroke="#000000" stroke-width="1" width="66" x="470" y="480"/>
<text font-family="Dialog" font-size="12" x="492" y="494">
Sqrt</text>
<rect fill="#000000" height="1" stroke="#000000" stroke-width="1" width="66" x="470" y="504"/>
<rect fill="#000000" height="1" stroke="#000000" stroke-width="1" width="66" x="470" y="525"/>
<line fill="#000000" stroke="#000000" stroke-width="1" x1="374" x2="374" y1="480" y2="475"/>
<line fill="#000000" stroke="#000000" stroke-width="1" x1="374" x2="374" y1="470" y2="465"/>
<line fill="#000000" stroke="#000000" stroke-width="1" x1="374" x2="374" y1="460" y2="455"/>
<line fill="#000000" stroke="#000000" stroke-width="1" x1="374" x2="374" y1="450" y2="445"/>
<line fill="#000000" stroke="#000000" stroke-width="1" x1="374" x2="374" y1="440" y2="435"/>
<line fill="#000000" stroke="#000000" stroke-width="1" x1="381" x2="374" y1="442" y2="430"/>
<line fill="#000000" stroke="#000000" stroke-width="1" x1="367" x2="374" y1="442" y2="430"/>
<line fill="#000000" stroke="#000000" stroke-width="1" x1="502" x2="502" y1="480" y2="475"/>
<line fill="#000000" stroke="#000000" stroke-width="1" x1="502" x2="502" y1="470" y2="465"/>
<line fill="#000000" stroke="#000000" stroke-width="1" x1="502" x2="497" y1="464" y2="464"/>
<line fill="#000000" stroke="#000000" stroke-width="1" x1="492" x2="487" y1="464" y2="464"/>
<line fill="#000000" stroke="#000000" stroke-width="1" x1="482" x2="477" y1="464" y2="464"/>
<line fill="#000000" stroke="#000000" stroke-width="1" x1="472" x2="467" y1="464" y2="464"/>
<line fill="#000000" stroke="#000000" stroke-width="1" x1="462" x2="457" y1="464" y2="464"/>
<line fill="#000000" stroke="#000000" stroke-width="1" x1="452" x2="447" y1="464" y2="464"/>
<line fill="#000000" stroke="#000000" stroke-width="1" x1="442" x2="437" y1="464" y2="464"/>
<line fill="#000000" stroke="#000000" stroke-width="1" x1="432" x2="427" y1="464" y2="464"/>
<line fill="#000000" stroke="#000000" stroke-width="1" x1="422" x2="417" y1="464" y2="464"/>
<line fill="#000000" stroke="#000000" stroke-width="1" x1="412" x2="407" y1="464" y2="464"/>
<line fill="#000000" stroke="#000000" stroke-width="1" x1="402" x2="397" y1="464" y2="464"/>
<line fill="#000000" stroke="#000000" stroke-width="1" x1="392" x2="387" y1="464" y2="464"/>
<line fill="#000000" stroke="#000000" stroke-width="1" x1="382" x2="377" y1="464" y2="464"/>
<line fill="#000000" stroke="#000000" stroke-width="1" x1="374" x2="374" y1="464" y2="459"/>
<line fill="#000000" stroke="#000000" stroke-width="1" x1="374" x2="374" y1="454" y2="449"/>
<line fill="#000000" stroke="#000000" stroke-width="1" x1="374" x2="374" y1="444" y2="439"/>
<line fill="#000000" stroke="#000000" stroke-width="1" x1="374" x2="374" y1="434" y2="430"/>
<line fill="#000000" stroke="#000000" stroke-width="1" x1="381" x2="374" y1="442" y2="430"/>
<line fill="#000000" stroke="#000000" stroke-width="1" x1="367" x2="374" y1="442" y2="430"/>
<rect fill="#ffffff" height="68" stroke="#ffffff" stroke-width="1" width="72" x="94" y="664"/>
<rect fill="none" height="68" stroke="#000000" stroke-width="1" width="72" x="94" y="664"/>
<text font-family="Dialog" font-size="12" x="99" y="678">
Subtraction</text>
<rect fill="#000000" height="1" stroke="#000000" stroke-width="1" width="72" x="94" y="688"/>
<rect fill="#000000" height="1" stroke="#000000" stroke-width="1" width="72" x="94" y="709"/>
<rect fill="#ffffff" height="68" stroke="#ffffff" stroke-width="1" width="81" x="190" y="664"/>
<rect fill="none" height="68" stroke="#000000" stroke-width="1" width="81" x="190" y="664"/>
<text font-family="Dialog" font-size="12" x="195" y="678">
Multiplication</text>
<rect fill="#000000" height="1" stroke="#000000" stroke-width="1" width="81" x="190" y="688"/>
<rect fill="#000000" height="1" stroke="#000000" stroke-width="1" width="81" x="190" y="709"/>
<rect fill="#ffffff" height="68" stroke="#ffffff" stroke-width="1" width="66" x="302" y="664"/>
<rect fill="none" height="68" stroke="#000000" stroke-width="1" width="66" x="302" y="664"/>
<text font-family="Dialog" font-size="12" x="313" y="678">
Division</text>
<rect fill="#000000" height="1" stroke="#000000" stroke-width="1" width="66" x="302" y="688"/>
<rect fill="#000000" height="1" stroke="#000000" stroke-width="1" width="66" x="302" y="709"/>
<line fill="#000000" stroke="#000000" stroke-width="1" x1="244" x2="244" y1="464" y2="459"/>
<line fill="#000000" stroke="#000000" stroke-width="1" x1="244" x2="244" y1="454" y2="449"/>
<line fill="#000000" stroke="#000000" stroke-width="1" x1="244" x2="244" y1="444" y2="439"/>
<line fill="#000000" stroke="#000000" stroke-width="1" x1="244" x2="244" y1="434" y2="430"/>
<line fill="#000000" stroke="#000000" stroke-width="1" x1="251" x2="244" y1="442" y2="430"/>
<line fill="#000000" stroke="#000000" stroke-width="1" x1="237" x2="244" y1="442" y2="430"/>
<text font-family="Dialog" font-size="12" x="165" y="460">
&lt;&lt;realize&gt;&gt;</text>
<polyline fill="none" points="126,664 126,632 182,632 182,569" stroke="#000000" stroke-width="1"/>
<polygon fill="#ffffff" points="182,569 189,581 175,581" stroke="#ffffff" stroke-width="1"/>
<polygon fill="none" points="182,569 189,581 175,581" stroke="#000000" stroke-width="1"/>
<polyline fill="none" points="230,664 230,632 182,632 182,569" stroke="#000000" stroke-width="1"/>
<polygon fill="#ffffff" points="182,569 189,581 175,581" stroke="#ffffff" stroke-width="1"/>
<polygon fill="none" points="182,569 189,581 175,581" stroke="#000000" stroke-width="1"/>
<polyline fill="none" points="334,664 334,632 182,632 182,569" stroke="#000000" stroke-width="1"/>
<polygon fill="#ffffff" points="182,569 189,581 175,581" stroke="#ffffff" stroke-width="1"/>
<polygon fill="none" points="182,569 189,581 175,581" stroke="#000000" stroke-width="1"/>
<rect fill="#ffffff" height="68" stroke="#ffffff" stroke-width="1" width="66" x="14" y="664"/>
<rect fill="none" height="68" stroke="#000000" stroke-width="1" width="66" x="14" y="664"/>
<text font-family="Dialog" font-size="12" x="25" y="678">
Addition</text>
<rect fill="#000000" height="1" stroke="#000000" stroke-width="1" width="66" x="14" y="688"/>
<rect fill="#000000" height="1" stroke="#000000" stroke-width="1" width="66" x="14" y="709"/>
<polyline fill="none" points="46,664 46,632 182,632 182,569" stroke="#000000" stroke-width="1"/>
<polygon fill="#ffffff" points="182,569 189,581 175,581" stroke="#ffffff" stroke-width="1"/>
<polygon fill="none" points="182,569 189,581 175,581" stroke="#000000" stroke-width="1"/>
</svg>
